<svg width="140" height="44" viewBox="0 0 140 44" fill="none" xmlns="http://www.w3.org/2000/svg">
<path d="M0.734375 33.3203V1.60938C0.734375 1.42188 0.796875 1.25781 0.921875 1.11719C1.0625 0.960937 1.21875 0.882812 1.39062 0.882812H12.7344C16.8906 0.882812 20.1641 1.92187 22.5547 4C24.9609 6.0625 26.1641 8.82812 26.1641 12.2969C26.1641 15.7656 24.9609 18.5391 22.5547 20.6172C20.1641 22.6953 16.8906 23.7344 12.7344 23.7344H10.7656V33.3203C10.7656 33.4922 10.6875 33.6484 10.5312 33.7891C10.375 33.9297 10.1953 34 9.99219 34H1.39062C1.23438 34 1.08594 33.9297 0.945312 33.7891C0.804688 33.6484 0.734375 33.4922 0.734375 33.3203ZM10.6719 15.1328H13.1562C14 15.1328 14.6797 14.875 15.1953 14.3594C15.7266 13.8281 15.9922 13.1406 15.9922 12.2969C15.9922 11.4531 15.7266 10.7734 15.1953 10.2578C14.6797 9.72656 14 9.46094 13.1562 9.46094H10.6719V15.1328ZM26.4453 25.8906C26.4609 23.5312 27.3047 21.6406 28.9766 20.2188C30.6641 18.7812 32.8594 18.0625 35.5625 18.0625C36.9531 18.0625 38.2188 18.2969 39.3594 18.7656C40.5 19.2344 41.3125 19.8516 41.7969 20.6172V18.6016C41.7969 17.5703 41.4609 16.7422 40.7891 16.1172C40.1172 15.4922 39.2266 15.1797 38.1172 15.1797C37.1797 15.1797 36.1797 15.3281 35.1172 15.625C34.0703 15.9062 33.1484 16.2734 32.3516 16.7266C32.1016 16.8828 31.8594 16.75 31.625 16.3281L28.8828 10.5859C28.7422 10.2422 28.8281 9.9375 29.1406 9.67188C30.5156 8.79688 32.1094 8.125 33.9219 7.65625C35.75 7.17188 37.625 6.92969 39.5469 6.92969C43.7031 6.92969 46.7656 8.05469 48.7344 10.3047C50.7031 12.5547 51.6875 16.0703 51.6875 20.8516V33.2734C51.6875 33.4609 51.6094 33.6328 51.4531 33.7891C51.3125 33.9297 51.1484 34 50.9609 34H44.9141C44.7266 34 44.5547 33.9297 44.3984 33.7891C44.2422 33.6328 44.1641 33.4609 44.1641 33.2734L43.8125 31.9844C43.0156 32.8281 41.875 33.5 40.3906 34C38.9219 34.4844 37.3125 34.7266 35.5625 34.7266C32.7969 34.7266 30.5781 33.9141 28.9062 32.2891C27.2656 30.6953 26.4453 28.6094 26.4453 26.0312C26.4453 25.9844 26.4453 25.9375 26.4453 25.8906ZM37.7188 24.625C37.3438 24.9375 37.1562 25.3594 37.1562 25.8906C37.1562 26.4219 37.3438 26.8438 37.7188 27.1562C38.0938 27.4688 38.5781 27.625 39.1719 27.625C40.1094 27.625 40.9844 27.2188 41.7969 26.4062V25.3516C41 24.5547 40.125 24.1562 39.1719 24.1562C38.5781 24.1562 38.0938 24.3125 37.7188 24.625ZM53.4688 8.26562C53.4062 8.10938 53.4219 7.96094 53.5156 7.82031C53.625 7.67969 53.7734 7.60938 53.9609 7.60938H63.5938C64.0312 7.60938 64.3359 7.82812 64.5078 8.26562L68.2109 23.3359L71.8438 8.26562C71.8906 8.0625 72 7.90625 72.1719 7.79688C72.3438 7.67188 72.5234 7.60938 72.7109 7.60938H82.1797C82.3828 7.60938 82.5312 7.67969 82.625 7.82031C82.7188 7.94531 82.7422 8.09375 82.6953 8.26562L74.4922 34C73.3828 37.5 71.8281 39.9844 69.8281 41.4531C67.8281 42.9219 65.2422 43.6562 62.0703 43.6562C60.4297 43.6562 58.8516 43.4141 57.3359 42.9297C55.8359 42.4609 54.6875 41.8359 53.8906 41.0547C53.6719 40.8359 53.5938 40.5625 53.6562 40.2344L56.3516 34.8203C56.5078 34.4609 56.7031 34.3672 56.9375 34.5391C58.5938 35.6797 60.1562 36.25 61.625 36.25C62.8438 36.25 63.7891 35.9453 64.4609 35.3359C65.1484 34.7422 65.6641 33.75 66.0078 32.3594H62.0703C61.6172 32.3594 61.3281 32.1406 61.2031 31.7031L53.4688 8.26562Z" fill="#4B90F1"/>
<path d="M84.1953 21.7188V1.70312C84.1953 1.48438 84.2734 1.29688 84.4297 1.14062C84.6016 0.96875 84.7969 0.882812 85.0156 0.882812H93.2891C93.5234 0.882812 93.7109 0.96875 93.8516 1.14062C94.0078 1.29688 94.0859 1.48438 94.0859 1.70312V22.5859C94.0859 23.6797 94.3828 24.5391 94.9766 25.1641C95.5703 25.7734 96.3984 26.0781 97.4609 26.0781C98.5078 26.0781 99.3281 25.7734 99.9219 25.1641C100.516 24.5547 100.812 23.7109 100.812 22.6328V1.70312C100.812 1.48438 100.898 1.29688 101.07 1.14062C101.242 0.96875 101.43 0.882812 101.633 0.882812H109.883C110.117 0.882812 110.312 0.96875 110.469 1.14062C110.625 1.29688 110.703 1.48438 110.703 1.70312V21.7188C110.703 25.9688 109.578 29.1953 107.328 31.3984C105.094 33.5859 101.805 34.6797 97.4609 34.6797C93.1641 34.6797 89.8906 33.5859 87.6406 31.3984C85.3906 29.1953 84.2422 25.9688 84.1953 21.7188ZM113.891 33.3203V1.60938C113.891 1.42188 113.953 1.25781 114.078 1.11719C114.219 0.960937 114.375 0.882812 114.547 0.882812H125.891C130.047 0.882812 133.32 1.92187 135.711 4C138.117 6.0625 139.32 8.82812 139.32 12.2969C139.32 15.7656 138.117 18.5391 135.711 20.6172C133.32 22.6953 130.047 23.7344 125.891 23.7344H123.922V33.3203C123.922 33.4922 123.844 33.6484 123.688 33.7891C123.531 33.9297 123.352 34 123.148 34H114.547C114.391 34 114.242 33.9297 114.102 33.7891C113.961 33.6484 113.891 33.4922 113.891 33.3203ZM123.828 15.1328H126.312C127.156 15.1328 127.836 14.875 128.352 14.3594C128.883 13.8281 129.148 13.1406 129.148 12.2969C129.148 11.4531 128.883 10.7734 128.352 10.2578C127.836 9.72656 127.156 9.46094 126.312 9.46094H123.828V15.1328Z" fill="#0F3154"/>
</svg>
